<?xml version="1.0" encoding="iso-8859-1"?>
<!-- Generator: Adobe Illustrator 19.0.0, SVG Export Plug-In . SVG Version: 6.00 Build 0)  -->
<svg version="1.1" id="Layer_1" xmlns="http://www.w3.org/2000/svg" xmlns:xlink="http://www.w3.org/1999/xlink" x="0px" y="0px"
	 viewBox="0 0 512 512" style="enable-background:new 0 0 512 512;" xml:space="preserve">
<path style="fill:#8D6A59;" d="M393.897,495.063l-61.438-25.368l75.676-183.281c1.875-4.54,7.075-6.701,11.616-4.827l44.995,18.579
	c4.54,1.875,6.701,7.075,4.827,11.616L393.897,495.063z"/>
<polygon style="opacity:0.2;enable-background:new    ;" points="453.163,351.526 410.361,368.104 391.724,326.159 383.818,345.307 
	396.357,373.528 367.561,384.682 359.654,403.831 402.455,387.253 421.092,429.198 428.998,410.05 416.459,381.829 445.256,370.676 
	"/>
<path style="opacity:0.3;fill:#FFFFFF;enable-background:new    ;" d="M457.155,341.858l-61.438-25.368l12.418-30.076
	c1.875-4.54,7.075-6.701,11.616-4.827l44.995,18.579c4.54,1.875,6.701,7.075,4.827,11.616L457.155,341.858z"/>
<path style="fill:#E36566;" d="M66.981,361.842c28.781-36.564,41.552-75.198,37.973-114.93l50.238-4.526
	c3.213,35.671-3.4,70.951-19.658,104.86c-10.306,21.496-22.068,37.353-29.599,46.716c-2.503,3.112-7.064,3.567-10.13,1.008
	L67.99,371.742C65.022,369.264,64.59,364.88,66.981,361.842z"/>
<path style="opacity:0.15;enable-background:new    ;" d="M66.981,361.842c28.781-36.564,41.552-75.198,37.973-114.93l50.238-4.526
	c3.213,35.671-3.4,70.951-19.658,104.86c-10.306,21.496-22.068,37.353-29.599,46.716c-2.503,3.112-7.064,3.567-10.13,1.008
	L67.99,371.742C65.022,369.264,64.59,364.88,66.981,361.842z"/>
<path style="fill:#E36566;" d="M35.305,300.087c42.316-19.354,71.342-47.871,86.329-84.842l46.747,18.949
	c-13.455,33.192-35.471,61.542-65.437,84.263c-18.996,14.404-36.707,23.127-47.687,28.009c-3.649,1.622-7.914-0.058-9.469-3.736
	l-14.114-33.377C30.168,305.792,31.788,301.696,35.305,300.087z"/>
<path style="fill:#394049;" d="M141.388,393.404C67.609,405.2,57.17,471.179,56.118,499.301C55.858,506.243,61.431,512,68.378,512
	h73.01V393.404z"/>
<path style="opacity:0.3;enable-background:new    ;" d="M130.301,395.71C99.824,425.542,80.279,466.49,78.229,512h63.16V393.404
	C137.515,394.023,133.833,394.806,130.301,395.71z"/>
<path style="fill:#394049;" d="M395.609,393.404c73.778,11.796,84.218,77.775,85.27,105.897c0.26,6.942-5.313,12.699-12.26,12.699
	h-73.01L395.609,393.404L395.609,393.404z"/>
<path style="opacity:0.3;enable-background:new    ;" d="M406.696,395.71c30.477,29.831,50.023,70.78,52.073,116.29h-63.16V393.404
	C399.483,394.023,403.164,394.806,406.696,395.71z"/>
<path style="fill:#394049;" d="M442.356,512c0-96.018-77.838-173.857-173.857-173.857S94.642,415.982,94.642,512H442.356z"/>
<path style="opacity:0.15;enable-background:new    ;" d="M268.499,338.143c-50.377,0-95.74,21.435-127.493,55.671
	c34.88,28.095,79.218,44.923,127.493,44.923s92.612-16.828,127.493-44.923C364.239,359.578,318.876,338.143,268.499,338.143z"/>
<circle style="fill:#394049;" cx="269.02" cy="203.41" r="203.41"/>
<path style="fill:#F6CDB5;" d="M394.167,214.644H142.831c-17.375,0-31.461-14.085-31.461-31.461l0,0
	c0-17.375,14.085-31.461,31.461-31.461h251.337c17.375,0,31.461,14.086,31.461,31.461l0,0
	C425.628,200.559,411.542,214.644,394.167,214.644z"/>
<g>
	<path style="fill:#394049;" d="M156.098,201.263c-4.142,0-7.5-3.357-7.5-7.5v-24.702c0-4.143,3.358-7.5,7.5-7.5s7.5,3.357,7.5,7.5
		v24.702C163.598,197.905,160.24,201.263,156.098,201.263z"/>
	<path style="fill:#394049;" d="M380.9,201.263c-4.142,0-7.5-3.357-7.5-7.5v-24.702c0-4.143,3.358-7.5,7.5-7.5s7.5,3.357,7.5,7.5
		v24.702C388.4,197.905,385.042,201.263,380.9,201.263z"/>
</g>
<g>
	<path style="fill:#EC8087;" d="M172.704,263.484h-33.205c-4.142,0-7.5-3.357-7.5-7.5s3.358-7.5,7.5-7.5h33.205
		c4.142,0,7.5,3.357,7.5,7.5S176.846,263.484,172.704,263.484z"/>
	<path style="fill:#EC8087;" d="M397.499,263.484h-33.205c-4.142,0-7.5-3.357-7.5-7.5s3.358-7.5,7.5-7.5h33.205
		c4.142,0,7.5,3.357,7.5,7.5S401.641,263.484,397.499,263.484z"/>
</g>
<path style="opacity:0.1;fill:#FFFFFF;enable-background:new    ;" d="M268.499,263.484c-10.47,0-20.461-5.043-26.727-13.489
	c-2.468-3.327-1.772-8.024,1.555-10.492c3.326-2.467,8.025-1.771,10.492,1.555c3.501,4.72,8.852,7.427,14.68,7.427
	s11.179-2.707,14.68-7.427c2.468-3.326,7.166-4.021,10.492-1.555c3.327,2.468,4.023,7.165,1.555,10.492
	C288.96,258.441,278.969,263.484,268.499,263.484z"/>
<path style="fill:#E36566;" d="M445.156,101.615H92.882c-8.99,15.521-15.984,32.341-20.638,50.108h393.55
	C461.139,133.955,454.145,117.136,445.156,101.615z"/>
<g>
</g>
<g>
</g>
<g>
</g>
<g>
</g>
<g>
</g>
<g>
</g>
<g>
</g>
<g>
</g>
<g>
</g>
<g>
</g>
<g>
</g>
<g>
</g>
<g>
</g>
<g>
</g>
<g>
</g>
</svg>
